<svg width="176" height="18" viewBox="0 0 176 18" fill="none" xmlns="http://www.w3.org/2000/svg">
  <g clip-path="url(#clip0_221_7684)">
    <path d="M175.446 0.470276H170.251L164.03 7.4176V0.470276H159.669L159.691 17.5721H164.03V11.0733L169.931 17.5721H175.446L167.494 9.12843L175.446 0.470276Z" fill="black" />
    <path d="M152.637 7.50316L148.661 7.05459C146.33 6.79781 145.754 6.22031 145.754 5.42936C145.754 4.55282 146.951 3.76187 149.281 3.76187C151.526 3.76187 152.701 4.59616 152.915 5.85734H157.19C156.973 2.2439 153.94 0 149.516 0C144.258 0 141.606 2.09438 141.606 5.79233C141.606 8.8066 143.359 10.2184 146.993 10.603L151.034 11.0299C152.573 11.2011 153.279 11.8003 153.279 12.5696C153.279 13.4461 152.253 14.237 149.772 14.237C146.908 14.237 145.754 13.51 145.561 12.056H141.371C141.564 15.9901 144.129 17.9989 149.623 17.9989C154.646 17.9989 157.447 15.7973 157.447 12.484C157.447 9.59754 155.779 7.86613 152.637 7.50316Z" fill="black" />
    <path d="M125.68 17.5721H139.447V13.8741H130.041V10.7743H137.608V7.05464H130.041V4.16822H139.447V0.470276H125.68V17.5721Z" fill="black" />
    <path d="M115.419 0.470276H107.424V17.5721H115.419C121.555 17.5721 123.243 15.2848 123.243 8.89223C123.243 2.88537 121.619 0.470276 115.419 0.470276ZM115.243 13.8752H111.776V4.16822H115.243C117.98 4.16822 118.792 4.91691 118.792 8.89223C118.796 12.5263 117.877 13.8752 115.243 13.8752Z" fill="black" />
    <path d="M95.5819 0C89.3605 0 86.1328 3.8258 86.1328 8.97779C86.1328 14.1514 89.3605 17.9989 95.5819 17.9989C101.824 17.9989 105.052 14.1514 105.052 8.97779C105.052 3.8258 101.824 0 95.5819 0ZM95.5819 14.1514C92.3542 14.1514 90.5794 12.1849 90.5794 8.97779C90.5794 5.83567 92.3542 3.84747 95.5819 3.84747C98.8324 3.84747 100.584 5.83567 100.584 8.97779C100.584 12.1849 98.8313 14.1514 95.5819 14.1514Z" fill="black" />
    <path d="M70.0576 4.16822H75.5726V17.5721H79.9336V4.16822H85.428V0.470276H70.0576V4.16822Z" fill="black" />
    <path d="M63.7095 11.03C63.7095 13.2533 62.341 14.1515 60.0104 14.1515C57.7448 14.1515 56.2702 13.211 56.2702 11.03V0.470276H51.9092V11.5219C51.9092 16.4604 56.3125 17.999 60.0104 17.999C63.6878 17.999 68.0694 16.4604 68.0694 11.5219V0.470276H63.7095V11.03Z" fill="black" />
    <path d="M39.1462 0.470276L32.5835 17.5721H37.0941L38.2393 14.3649H45.5659L46.6927 17.5721H51.3517L44.7088 0.470276H39.1462ZM39.5373 10.7309L41.9329 4.02737L44.2884 10.7331L39.5373 10.7309Z" fill="black" />
    <path d="M0.134352 17.5731L15.4484 8.04708H23.3925C23.4535 8.04708 23.5139 8.05911 23.5702 8.08248C23.6266 8.10585 23.6777 8.14011 23.7208 8.18329C23.7639 8.22646 23.798 8.27771 23.8213 8.3341C23.8445 8.39049 23.8564 8.45091 23.8563 8.51189C23.8626 8.59102 23.8454 8.67025 23.8068 8.73964C23.7683 8.80904 23.7101 8.8655 23.6396 8.90195L16.118 13.4114C15.6293 13.704 15.4581 14.2912 15.4581 14.7311L15.4505 17.5731H25.0091V1.05641C25.0093 0.977199 24.9935 0.898766 24.9625 0.825847C24.9316 0.752929 24.8862 0.687037 24.8291 0.632152C24.772 0.577266 24.7043 0.534526 24.6302 0.506512C24.5561 0.478498 24.4771 0.46579 24.398 0.469158H15.2772L0 9.95402V17.5731H0.134352Z" fill="black" />
  </g>
  <defs>
    <clipPath id="clip0_221_7684">
      <rect width="175.446" height="18" fill="white" />
    </clipPath>
  </defs>
</svg>
